<svg xmlns="http://www.w3.org/2000/svg" viewBox="0 0 82.82 87.21"><defs><style>.cls-1{fill:#161b21;}</style></defs><g id="Layer_2" data-name="Layer 2"><g id="OBJECT"><path class="cls-1" d="M71.49,42.78c3.08,3.28,6.84,5.3,11.33,4.95a19.6,19.6,0,0,1-8.18-9.65c-1.68-3.95-2.25-8.42-2.72-12.69a10.56,10.56,0,0,0,10.44,2.25c-2.61-.58-4.52-2.84-5.81-5.18S74.63,17,73,14.92A2,2,0,0,0,74,15.1a30,30,0,0,0,6.74-.95,11.68,11.68,0,0,1-6.63-6.34c2.56-.45,4.38-2.62,5.44-5-1.69,1.33-4.15,1.1-6.14.3S69.65,1.05,67.6.38s-4.57-.55-6,1.07a6.73,6.73,0,0,0-1.06,1.91,15.62,15.62,0,0,0-1.21,8c.13-.62.25-1.24.38-1.86a3,3,0,0,1,1-2,2.54,2.54,0,0,1,2.56.15c1,.51,1.89,1.42,1.74,2.49a3,3,0,0,1-.84,1.47,19.49,19.49,0,0,1-1.58,1.69,2.92,2.92,0,0,1,2.42.57,2,2,0,0,1,.06,2.37A6,6,0,0,1,63.19,18a23.86,23.86,0,0,1-4.89,2.77,9.07,9.07,0,0,1-5.82.19,5.3,5.3,0,0,1-3,2.94,8.92,8.92,0,0,1-2.17.58l.36-4.11a2.25,2.25,0,0,1,0-2.67c.23-.24.56-.44.59-.78s-.38-.71-.78-.83a10.89,10.89,0,0,0-2.49-.22,3.76,3.76,0,0,1-1.68-.48h.43L54,15a2.73,2.73,0,0,0,1.72-.44,2.18,2.18,0,0,0,.63-1,6.52,6.52,0,0,0,.21-4.07.64.64,0,0,0-.16-.33c-.27-.25-.7,0-.85.38-.28.63-.16,1.38-.39,2-.45,1.21-1.92,1.63-3.2,1.79A28.47,28.47,0,0,1,42.51,13a2.55,2.55,0,0,1,.75-1.08,4.1,4.1,0,0,1,3.11-.72,17.26,17.26,0,0,0,1.88.24c1.8,0,5-2.47,3.59-4.5a2,2,0,0,1-1.79.43c-1.7-.34-2.67-1.91-3.49-3.29a9.2,9.2,0,0,0-1.89-2.52A9.3,9.3,0,0,0,40.79,0a2.15,2.15,0,0,1,1,2.46c-.9-.3-1.57-.54-2.47-.83a11,11,0,0,0-2-.52,5.57,5.57,0,0,0-3.64.76A2,2,0,0,1,35.22,3.2a4.7,4.7,0,0,1,.14,2.08.89.89,0,0,1-.12.4.62.62,0,0,1-.27.21c-.89.4-1.88-.22-2.65-.81a11.92,11.92,0,0,0,1.12,6,19.22,19.22,0,0,1,.94,1.87,5.77,5.77,0,0,1-1.77,6.43c1.27.74,2.86,1.95,3.16,3.39a5.64,5.64,0,0,1,0,1.3l0,.42a8.83,8.83,0,0,1-2.43-.6,5.3,5.3,0,0,1-3-2.94,9.1,9.1,0,0,1-5.83-.19A24.05,24.05,0,0,1,19.63,18a6,6,0,0,1-1.86-1.71,2,2,0,0,1,.06-2.37,2.92,2.92,0,0,1,2.42-.57,18.05,18.05,0,0,1-1.58-1.69,3,3,0,0,1-.84-1.47c-.15-1.07.78-2,1.74-2.49a2.54,2.54,0,0,1,2.56-.15,3,3,0,0,1,1,2c.13.62.25,1.24.38,1.86a15.62,15.62,0,0,0-1.21-8A6.73,6.73,0,0,0,21.2,1.45c-1.41-1.62-3.94-1.73-6-1.07S11.39,2.32,9.39,3.11s-4.45,1-6.14-.3c1.06,2.38,2.88,4.55,5.44,5a11.68,11.68,0,0,1-6.63,6.34,30,30,0,0,0,6.74.95,2,2,0,0,0,1.07-.18c-1.68,2.09-2.3,5.2-3.6,7.54s-3.2,4.6-5.81,5.18A10.56,10.56,0,0,0,10.9,25.39c-.47,4.27-1,8.74-2.72,12.69A19.65,19.65,0,0,1,0,47.73c4.49.35,8.25-1.67,11.33-4.95s5-7.48,6.55-11.71C18,36,17.79,41,16.19,45.66A21.63,21.63,0,0,1,7.43,57.23c5.91.09,11.26-4.18,14.45-9.16s4.84-10.77,7.2-16.19A25.17,25.17,0,0,1,28.72,40a60.78,60.78,0,0,1-1.92,6.51,16,16,0,0,0,6.42-5.72,51.43,51.43,0,0,0,4.23-8c.07,1.84.38,3.83.45,5.66a8.1,8.1,0,0,1-.5,3.92A6.74,6.74,0,0,1,35,44.77c-1.68,1.13-3.54,2-5.23,3.1a9.74,9.74,0,0,0-4,4.48,7.21,7.21,0,0,1,2.76.45,40.64,40.64,0,0,1-8.71,11.6c-.54-.67-1.32-1.35-1.86-2a2.81,2.81,0,0,0-.91-.84,2.28,2.28,0,0,0-1.32-.14,7.43,7.43,0,0,0-6.31,6.07,3,3,0,0,1,3.08-1.86,4.84,4.84,0,0,1,3.24,1.76,4.72,4.72,0,0,0-2.94,4.18,10.21,10.21,0,0,0,1.62,5.4c.12-.89.24-1.8.35-2.68A2.12,2.12,0,0,1,15.24,73a2.51,2.51,0,0,1,.91-.49,5.1,5.1,0,0,0,1.91-1.37c.81-.91,1.43-2.18,2.61-2.45a28.76,28.76,0,0,0,.57,5.78,2.15,2.15,0,0,0,.85,1.56c1-1.41,2-2.94,2-4.66,0-1.28-.56-2.55-.31-3.8a1.56,1.56,0,0,1,1.62-1.24,5.12,5.12,0,0,1,1.9,1.06,2.36,2.36,0,0,0,2,.53c.54-.19.9-.69,1.38-1a2.09,2.09,0,0,1,2.3.16c-.5-.68-.14-2-.75-2.64a2.2,2.2,0,0,0-1.15-.57A40.78,40.78,0,0,0,26.59,63a20.52,20.52,0,0,1,6.1-7.2,12.38,12.38,0,0,0,1.15,2.08,74,74,0,0,1,4.06-6.43c0,.93,0,2,0,2.88a5.21,5.21,0,0,1-.38,2.07,5.32,5.32,0,0,1-2.82,2.21A13.8,13.8,0,0,0,38,60.71a2.79,2.79,0,0,1-3.68,1.57A5.47,5.47,0,0,0,37.58,66a10.06,10.06,0,0,1-9.14,4.12,9,9,0,0,0,7.62,1.64,6.3,6.3,0,0,1-4.93,4.14c-1.19.13-2.4-.07-3.57.15-2.52.46-4.32,2.7-5.51,5,.74-1,2.55-1.14,3.82-1.2s2.54.2,3.81.23a10.85,10.85,0,0,0,7.92-3.23,18,18,0,0,1-4.55,4.36c-1.33.95-2.84,1.94-4.46,1.74A7.3,7.3,0,0,0,34,83c2.12-.83,3.71-2.61,5.21-4.32a25.84,25.84,0,0,0,.71,4.54,8.37,8.37,0,0,0,1.84,4c1.08-1.1.86-2.55,1.24-4a24.92,24.92,0,0,0,.7-4.54c1.51,1.71,3.1,3.49,5.22,4.32a7.3,7.3,0,0,0,5.36-.06c-1.62.2-3.13-.79-4.46-1.74a18,18,0,0,1-4.55-4.36A10.85,10.85,0,0,0,53.14,80c1.27,0,2.54-.28,3.81-.23S60,80,60.77,81c-1.2-2.27-3-4.51-5.51-5-1.17-.22-2.39,0-3.57-.15a6.3,6.3,0,0,1-4.93-4.14,9,9,0,0,0,7.62-1.64A10,10,0,0,1,45.24,66a5.43,5.43,0,0,0,3.23-3.69,2.78,2.78,0,0,1-3.67-1.57,13.8,13.8,0,0,0,3.35-2.11,5.32,5.32,0,0,1-2.82-2.21A5.21,5.21,0,0,1,45,54.32c-.05-.93,0-2,0-2.88A74,74,0,0,1,49,57.87a12.38,12.38,0,0,0,1.15-2.08A20.49,20.49,0,0,1,56.22,63a41.73,41.73,0,0,0-4.55.94,2.21,2.21,0,0,0-1.14.57c-.61.69-.25,2-.75,2.64a2.09,2.09,0,0,1,2.3-.16c.48.29.84.79,1.38,1a2.36,2.36,0,0,0,2-.53,5.12,5.12,0,0,1,1.9-1.06A1.57,1.57,0,0,1,59,67.61c.25,1.25-.31,2.52-.31,3.8,0,1.72,1,3.25,2,4.66a2.15,2.15,0,0,0,.85-1.56,28,28,0,0,0,.56-5.78c1.19.27,1.81,1.54,2.62,2.45a5.1,5.1,0,0,0,1.91,1.37,2.51,2.51,0,0,1,.91.49A2.12,2.12,0,0,1,68,74.26c.11.88.23,1.79.34,2.68A10.13,10.13,0,0,0,70,71.54,4.73,4.73,0,0,0,67,67.36a4.84,4.84,0,0,1,3.24-1.76,3,3,0,0,1,3.08,1.86,7.43,7.43,0,0,0-6.31-6.07,2.28,2.28,0,0,0-1.32.14,2.81,2.81,0,0,0-.91.84c-.54.68-1.33,1.36-1.86,2a40.64,40.64,0,0,1-8.71-11.6A7.21,7.21,0,0,1,57,52.35a9.74,9.74,0,0,0-3.95-4.48c-1.69-1.12-3.55-2-5.23-3.1a6.66,6.66,0,0,1-2.41-2.45,8.1,8.1,0,0,1-.5-3.92c.07-1.83.37-3.82.44-5.66a51.48,51.48,0,0,0,4.24,8A16,16,0,0,0,56,46.47,60.78,60.78,0,0,1,54.1,40a25.47,25.47,0,0,1-.37-8.08c2.37,5.42,4,11.21,7.21,16.19s8.54,9.25,14.45,9.16a21.63,21.63,0,0,1-8.76-11.57C65,41,64.79,36,64.94,31.07,66.48,35.3,68.41,39.49,71.49,42.78Z"/></g></g></svg>