<svg xmlns="http://www.w3.org/2000/svg" viewBox="0 0 84.79 89.36"><defs><style>.cls-1,.cls-2{fill:none;stroke-miterlimit:10;stroke-width:0.5px;}.cls-1{stroke:#000;}.cls-2{stroke:#ea580c;}</style></defs><g id="Layer_2" data-name="Layer 2"><g id="OBJECT"><path d="M84.53,49V89.11H42.67v-.68c1.08-1.1.85-2.55,1.24-4a26.63,26.63,0,0,0,.7-4.54c1.51,1.72,3.1,3.49,5.22,4.32a7.3,7.3,0,0,0,5.36,0c-1.62.2-3.13-.8-4.46-1.75A18.11,18.11,0,0,1,46.18,78a10.87,10.87,0,0,0,7.92,3.22c1.27,0,2.53-.28,3.81-.23s3.08.17,3.82,1.2c-1.2-2.26-3-4.5-5.51-5-1.17-.21-2.39,0-3.57-.15A6.27,6.27,0,0,1,47.72,73a9,9,0,0,0,7.61-1.64,10,10,0,0,1-9.13-4.12,5.41,5.41,0,0,0,3.23-3.69,2.78,2.78,0,0,1-3.67-1.56,14.44,14.44,0,0,0,3.35-2.11,5.4,5.4,0,0,1-2.83-2.22,5.51,5.51,0,0,1-.38-2.07c0-.93,0-1.95,0-2.88q2.19,3.12,4.06,6.44A13.68,13.68,0,0,0,51.09,57a20.63,20.63,0,0,1,6.09,7.21,41.69,41.69,0,0,0-4.55.93,2.21,2.21,0,0,0-1.14.57c-.61.69-.25,2-.75,2.64A2.09,2.09,0,0,1,53,68.2c.48.3.84.79,1.38,1a2.35,2.35,0,0,0,2-.53,5,5,0,0,1,1.89-1.05A1.56,1.56,0,0,1,60,68.84c.25,1.25-.31,2.52-.31,3.79,0,1.72,1.05,3.25,2,4.66a2.13,2.13,0,0,0,.85-1.56A28,28,0,0,0,63.1,70c1.19.27,1.8,1.54,2.61,2.45a5.3,5.3,0,0,0,1.92,1.36,2.8,2.8,0,0,1,.9.49A2,2,0,0,1,69,75.48c.12.89.24,1.79.35,2.68a10.08,10.08,0,0,0,1.63-5.4A4.76,4.76,0,0,0,68,68.58a4.82,4.82,0,0,1,3.24-1.75,3,3,0,0,1,3.08,1.85A7.44,7.44,0,0,0,68,62.61a2.36,2.36,0,0,0-1.32.14,2.73,2.73,0,0,0-.91.85c-.54.67-1.33,1.35-1.87,2A40.73,40.73,0,0,1,55.2,54,7.25,7.25,0,0,1,58,53.58a9.76,9.76,0,0,0-4-4.48c-1.68-1.12-3.54-2-5.22-3.1a6.66,6.66,0,0,1-2.41-2.45,8.11,8.11,0,0,1-.5-3.92c.07-1.83.37-3.83.44-5.66a51.93,51.93,0,0,0,4.24,8A16,16,0,0,0,57,47.7a57.26,57.26,0,0,1-1.92-6.52,24.9,24.9,0,0,1-.37-8.08c2.36,5.43,4,11.21,7.21,16.19s8.54,9.26,14.45,9.16a21.61,21.61,0,0,1-8.76-11.56C66,42.22,65.75,37.23,65.9,32.3c1.53,4.23,3.46,8.42,6.54,11.7s6.85,5.3,11.34,5Z"/><path d="M84.53,28.86V49h-.75A19.56,19.56,0,0,1,75.6,39.3c-1.68-3.95-2.25-8.42-2.73-12.68a10.6,10.6,0,0,0,10.45,2.24Z"/><path d="M84.53.25V28.86H83.32c-2.62-.57-4.52-2.83-5.81-5.18s-1.92-5.45-3.6-7.54a1.93,1.93,0,0,0,1.07.18,30,30,0,0,0,6.74-1A11.63,11.63,0,0,1,75.09,9c2.56-.46,4.38-2.63,5.44-5-1.69,1.32-4.15,1.09-6.14.3S70.6,2.27,68.56,1.61a7.53,7.53,0,0,0-2.36-.39v-1Z"/><path d="M66.2.25v1a4.67,4.67,0,0,0-3.62,1.45,6.49,6.49,0,0,0-1.06,1.91,15.69,15.69,0,0,0-1.28,7.24L57.72,12a6.71,6.71,0,0,0-.22-1.28.68.68,0,0,0-.16-.33c-.27-.24-.71.05-.85.39-.29.63-.16,1.38-.4,2-.44,1.21-1.92,1.63-3.19,1.79a28.44,28.44,0,0,1-9.43-.38,2.5,2.5,0,0,1,.74-1.09,4.16,4.16,0,0,1,3.12-.71,17.35,17.35,0,0,0,1.87.23c1.81,0,5-2.46,3.6-4.5A2,2,0,0,1,51,8.61c-1.7-.34-2.67-1.9-3.49-3.29A9.2,9.2,0,0,0,45.63,2.8a9.3,9.3,0,0,0-3.88-1.58v-1Z"/><path d="M65.94,15.11A2,2,0,0,1,66,17.49a6,6,0,0,1-1.86,1.7A23.66,23.66,0,0,1,59.26,22a9,9,0,0,1-5.82.19,5.34,5.34,0,0,1-3,3,9,9,0,0,1-2.17.57l.35-4.11a2.25,2.25,0,0,1,0-2.66c.23-.24.55-.45.59-.78s-.39-.72-.78-.84a11.48,11.48,0,0,0-2.49-.22,3.56,3.56,0,0,1-1.68-.48h.43l10.3-.33a2.76,2.76,0,0,0,1.72-.43,2.31,2.31,0,0,0,.63-1A6.67,6.67,0,0,0,57.72,12l2.52-.22c0,.24,0,.49.07.74.12-.62.25-1.24.38-1.86a3,3,0,0,1,1-2,2.54,2.54,0,0,1,2.57.16c1,.5,1.89,1.41,1.73,2.48a3,3,0,0,1-.83,1.48,19.36,19.36,0,0,1-1.58,1.68A2.89,2.89,0,0,1,65.94,15.11Z"/><path d="M41.75,1.22a2.16,2.16,0,0,1,1,2.46c-.9-.29-1.57-.53-2.47-.83a12.2,12.2,0,0,0-2-.52,5.61,5.61,0,0,0-3.65.76,2,2,0,0,1,1.5,1.33,4.85,4.85,0,0,1,.14,2.08,1,1,0,0,1-.12.41.79.79,0,0,1-.27.21c-.89.4-1.88-.23-2.65-.82a11.79,11.79,0,0,0,1.12,6,20.43,20.43,0,0,1,.94,1.87,5.77,5.77,0,0,1-1.77,6.43c1.27.74,2.86,2,3.16,3.4a5.56,5.56,0,0,1,0,1.29c0,.14,0,.29,0,.43a9.37,9.37,0,0,1-2.44-.6,5.37,5.37,0,0,1-3-3A9,9,0,0,1,25.47,22a23.59,23.59,0,0,1-4.88-2.77,5.84,5.84,0,0,1-1.86-1.7,2.06,2.06,0,0,1,.06-2.38,2.9,2.9,0,0,1,2.42-.57,17.94,17.94,0,0,1-1.58-1.68,3,3,0,0,1-.84-1.48c-.15-1.07.78-2,1.74-2.48a2.52,2.52,0,0,1,2.56-.16,3,3,0,0,1,1,2c.12.62.25,1.24.38,1.86a15.64,15.64,0,0,0-1.21-8,6.76,6.76,0,0,0-1.07-1.91,4.65,4.65,0,0,0-3.62-1.45v-1H41.75Z"/><path d="M42.67,88.43v.68H.25V49H1c4.49.35,8.25-1.67,11.33-5s5-7.47,6.54-11.7a40.77,40.77,0,0,1-1.68,14.59A21.65,21.65,0,0,1,8.39,58.45c5.91.1,11.26-4.18,14.45-9.16S27.68,38.53,30,33.1a25.17,25.17,0,0,1-.36,8.08,61.64,61.64,0,0,1-1.92,6.52A16.09,16.09,0,0,0,34.18,42a51.88,51.88,0,0,0,4.23-8c.07,1.83.37,3.83.44,5.66a8,8,0,0,1-.5,3.92A6.71,6.71,0,0,1,36,46c-1.68,1.12-3.54,2-5.23,3.1a9.76,9.76,0,0,0-4,4.48,7.25,7.25,0,0,1,2.77.44,40.36,40.36,0,0,1-8.71,11.6c-.54-.67-1.33-1.35-1.86-2a2.83,2.83,0,0,0-.91-.85,2.37,2.37,0,0,0-1.32-.14,7.43,7.43,0,0,0-6.31,6.07,3,3,0,0,1,3.07-1.85,4.85,4.85,0,0,1,3.25,1.75,4.73,4.73,0,0,0-2.94,4.18,10.16,10.16,0,0,0,1.62,5.4c.11-.89.24-1.79.35-2.68a2.17,2.17,0,0,1,.43-1.22,2.91,2.91,0,0,1,.9-.49A5.22,5.22,0,0,0,19,72.41c.81-.91,1.42-2.18,2.61-2.45a29.46,29.46,0,0,0,.56,5.77A2.2,2.2,0,0,0,23,77.29c1-1.41,2-2.94,2-4.66,0-1.27-.56-2.54-.3-3.79a1.54,1.54,0,0,1,1.62-1.24,4.85,4.85,0,0,1,1.89,1.05,2.36,2.36,0,0,0,2,.53c.53-.19.89-.68,1.38-1a2.08,2.08,0,0,1,2.29.16c-.5-.68-.14-2-.74-2.64a2.28,2.28,0,0,0-1.15-.57,40.75,40.75,0,0,0-4.55-.93A20.63,20.63,0,0,1,33.64,57,12.93,12.93,0,0,0,34.8,59.1a75.57,75.57,0,0,1,4.05-6.44c0,.93,0,2,0,2.88a5.15,5.15,0,0,1-.38,2.07,5.37,5.37,0,0,1-2.82,2.22A14.44,14.44,0,0,0,39,61.94,2.79,2.79,0,0,1,35.3,63.5a5.45,5.45,0,0,0,3.24,3.69,10,10,0,0,1-9.14,4.12A9,9,0,0,0,37,73a6.28,6.28,0,0,1-4.93,4.14c-1.19.14-2.4-.06-3.58.15-2.51.47-4.31,2.71-5.5,5,.74-1,2.55-1.14,3.82-1.2s2.54.21,3.81.23A10.88,10.88,0,0,0,38.56,78,18.28,18.28,0,0,1,34,82.37c-1.34.95-2.84,1.95-4.47,1.75a7.3,7.3,0,0,0,5.36,0c2.13-.83,3.72-2.6,5.22-4.32a25.69,25.69,0,0,0,.71,4.54A8.28,8.28,0,0,0,42.67,88.43Z"/><path d="M18.53.25v1a7.53,7.53,0,0,0-2.36.39c-2,.66-3.83,1.94-5.82,2.73S5.9,5.36,4.21,4c1,2.37,2.88,4.54,5.43,5A11.61,11.61,0,0,1,3,15.37a29.94,29.94,0,0,0,6.74,1,1.91,1.91,0,0,0,1.06-.18c-1.67,2.09-2.3,5.2-3.59,7.54S4,28.29,1.42,28.86H.25V.25Z"/><path d="M11.86,26.62c-.48,4.26-1,8.73-2.73,12.68A19.54,19.54,0,0,1,1,49H.25V28.86H1.42A10.58,10.58,0,0,0,11.86,26.62Z"/><polygon class="cls-1" points="18.53 0.25 0.25 0.25 0.25 28.86 0.25 48.95 0.25 89.11 42.67 89.11 84.53 89.11 84.53 48.95 84.53 28.86 84.53 0.25 66.2 0.25 41.75 0.25 18.53 0.25"/><path class="cls-2" d="M83.78,49c-4.49.35-8.26-1.67-11.34-5s-5-7.47-6.54-11.7c-.15,4.93.08,9.92,1.69,14.59a21.61,21.61,0,0,0,8.76,11.56c-5.91.1-11.26-4.18-14.45-9.16S57.05,38.53,54.69,33.1a24.9,24.9,0,0,0,.37,8.08A57.26,57.26,0,0,0,57,47.7,16,16,0,0,1,50.56,42a51.93,51.93,0,0,1-4.24-8c-.07,1.83-.37,3.83-.44,5.66a8.11,8.11,0,0,0,.5,3.92A6.66,6.66,0,0,0,48.79,46c1.68,1.12,3.54,2,5.22,3.1a9.76,9.76,0,0,1,4,4.48A7.25,7.25,0,0,0,55.2,54a40.73,40.73,0,0,0,8.71,11.6c.54-.67,1.33-1.35,1.87-2a2.73,2.73,0,0,1,.91-.85A2.36,2.36,0,0,1,68,62.61a7.44,7.44,0,0,1,6.31,6.07,3,3,0,0,0-3.08-1.85A4.82,4.82,0,0,0,68,68.58a4.76,4.76,0,0,1,2.94,4.18,10.08,10.08,0,0,1-1.63,5.4c-.11-.89-.23-1.79-.35-2.68a2,2,0,0,0-.43-1.22,2.8,2.8,0,0,0-.9-.49,5.3,5.3,0,0,1-1.92-1.36c-.81-.91-1.42-2.18-2.61-2.45a28,28,0,0,1-.56,5.77,2.13,2.13,0,0,1-.85,1.56c-1-1.41-2-2.94-2-4.66,0-1.27.56-2.54.31-3.79a1.56,1.56,0,0,0-1.63-1.24,5,5,0,0,0-1.89,1.05,2.35,2.35,0,0,1-2,.53c-.54-.19-.9-.68-1.38-1a2.09,2.09,0,0,0-2.3.16c.5-.68.14-2,.75-2.64a2.21,2.21,0,0,1,1.14-.57,41.69,41.69,0,0,1,4.55-.93A20.63,20.63,0,0,0,51.09,57a13.68,13.68,0,0,1-1.15,2.09q-1.87-3.32-4.06-6.44c0,.93,0,2,0,2.88a5.51,5.51,0,0,0,.38,2.07,5.4,5.4,0,0,0,2.83,2.22,14.44,14.44,0,0,1-3.35,2.11,2.78,2.78,0,0,0,3.67,1.56,5.41,5.41,0,0,1-3.23,3.69,10,10,0,0,0,9.13,4.12A9,9,0,0,1,47.72,73a6.27,6.27,0,0,0,4.93,4.14c1.18.14,2.4-.06,3.57.15,2.52.47,4.31,2.71,5.51,5-.74-1-2.55-1.14-3.82-1.2s-2.54.21-3.81.23A10.87,10.87,0,0,1,46.18,78a18.11,18.11,0,0,0,4.55,4.35c1.33.95,2.84,1.95,4.46,1.75a7.3,7.3,0,0,1-5.36,0c-2.12-.83-3.71-2.6-5.22-4.32a26.63,26.63,0,0,1-.7,4.54c-.39,1.49-.16,2.94-1.24,4a8.28,8.28,0,0,1-1.84-4,25.69,25.69,0,0,1-.71-4.54c-1.5,1.72-3.09,3.49-5.22,4.32a7.3,7.3,0,0,1-5.36,0c1.63.2,3.13-.8,4.47-1.75A18.28,18.28,0,0,0,38.56,78a10.88,10.88,0,0,1-7.92,3.22c-1.27,0-2.54-.28-3.81-.23s-3.08.17-3.82,1.2c1.19-2.26,3-4.5,5.5-5,1.18-.21,2.39,0,3.58-.15A6.28,6.28,0,0,0,37,73a9,9,0,0,1-7.62-1.64,10,10,0,0,0,9.14-4.12A5.45,5.45,0,0,1,35.3,63.5,2.79,2.79,0,0,0,39,61.94a14.44,14.44,0,0,1-3.35-2.11,5.37,5.37,0,0,0,2.82-2.22,5.15,5.15,0,0,0,.38-2.07c.05-.93,0-1.95,0-2.88A75.57,75.57,0,0,0,34.8,59.1,12.93,12.93,0,0,1,33.64,57a20.63,20.63,0,0,0-6.09,7.21,40.75,40.75,0,0,1,4.55.93,2.28,2.28,0,0,1,1.15.57c.6.69.24,2,.74,2.64a2.08,2.08,0,0,0-2.29-.16c-.49.3-.85.79-1.38,1a2.36,2.36,0,0,1-2-.53,4.85,4.85,0,0,0-1.89-1.05,1.54,1.54,0,0,0-1.62,1.24c-.26,1.25.31,2.52.3,3.79,0,1.72-1,3.25-2,4.66a2.2,2.2,0,0,1-.85-1.56A29.46,29.46,0,0,1,21.63,70c-1.19.27-1.8,1.54-2.61,2.45a5.22,5.22,0,0,1-1.92,1.36,2.91,2.91,0,0,0-.9.49,2.17,2.17,0,0,0-.43,1.22c-.11.89-.24,1.79-.35,2.68a10.16,10.16,0,0,1-1.62-5.4,4.73,4.73,0,0,1,2.94-4.18,4.85,4.85,0,0,0-3.25-1.75,3,3,0,0,0-3.07,1.85,7.43,7.43,0,0,1,6.31-6.07,2.37,2.37,0,0,1,1.32.14,2.83,2.83,0,0,1,.91.85c.53.67,1.32,1.35,1.86,2A40.36,40.36,0,0,0,29.53,54a7.25,7.25,0,0,0-2.77-.44,9.76,9.76,0,0,1,4-4.48c1.69-1.12,3.55-2,5.23-3.1a6.71,6.71,0,0,0,2.4-2.45,8,8,0,0,0,.5-3.92c-.07-1.83-.37-3.83-.44-5.66a51.88,51.88,0,0,1-4.23,8,16.09,16.09,0,0,1-6.42,5.72,61.64,61.64,0,0,0,1.92-6.52A25.17,25.17,0,0,0,30,33.1c-2.36,5.43-4,11.21-7.2,16.19S14.3,58.55,8.39,58.45a21.65,21.65,0,0,0,8.76-11.56A40.77,40.77,0,0,0,18.83,32.3c-1.53,4.23-3.46,8.42-6.54,11.7S5.45,49.3,1,49A19.54,19.54,0,0,0,9.13,39.3c1.69-3.95,2.25-8.42,2.73-12.68A10.58,10.58,0,0,1,1.42,28.86C4,28.29,5.94,26,7.23,23.68s1.92-5.45,3.59-7.54a1.91,1.91,0,0,1-1.06.18,29.94,29.94,0,0,1-6.74-1A11.61,11.61,0,0,0,9.64,9C7.09,8.58,5.26,6.41,4.21,4c1.69,1.32,4.14,1.09,6.14.3s3.78-2.07,5.82-2.73a7.53,7.53,0,0,1,2.36-.39,4.65,4.65,0,0,1,3.62,1.45,6.76,6.76,0,0,1,1.07,1.91,15.64,15.64,0,0,1,1.21,8c-.13-.62-.26-1.24-.38-1.86a3,3,0,0,0-1-2,2.52,2.52,0,0,0-2.56.16c-1,.5-1.89,1.41-1.74,2.48a3,3,0,0,0,.84,1.48,17.94,17.94,0,0,0,1.58,1.68,2.9,2.9,0,0,0-2.42.57,2.06,2.06,0,0,0-.06,2.38,5.84,5.84,0,0,0,1.86,1.7A23.59,23.59,0,0,0,25.47,22a9,9,0,0,0,5.82.19,5.37,5.37,0,0,0,3,3,9.37,9.37,0,0,0,2.44.6c0-.14,0-.29,0-.43a5.56,5.56,0,0,0,0-1.29c-.3-1.45-1.89-2.66-3.16-3.4a5.77,5.77,0,0,0,1.77-6.43,20.43,20.43,0,0,0-.94-1.87,11.79,11.79,0,0,1-1.12-6c.77.59,1.76,1.22,2.65.82a.79.79,0,0,0,.27-.21,1,1,0,0,0,.12-.41,4.85,4.85,0,0,0-.14-2.08,2,2,0,0,0-1.5-1.33,5.61,5.61,0,0,1,3.65-.76,12.2,12.2,0,0,1,2,.52c.9.3,1.57.54,2.47.83a2.16,2.16,0,0,0-1-2.46A9.3,9.3,0,0,1,45.63,2.8a9.2,9.2,0,0,1,1.89,2.52c.82,1.39,1.79,2.95,3.49,3.29a2,2,0,0,0,1.79-.43c1.45,2-1.79,4.51-3.6,4.5a17.35,17.35,0,0,1-1.87-.23,4.16,4.16,0,0,0-3.12.71,2.5,2.5,0,0,0-.74,1.09,28.44,28.44,0,0,0,9.43.38c1.27-.16,2.75-.58,3.19-1.79.24-.64.11-1.39.4-2,.14-.34.58-.63.85-.39a.68.68,0,0,1,.16.33,6.42,6.42,0,0,1-.21,4.07,2.31,2.31,0,0,1-.63,1,2.76,2.76,0,0,1-1.72.43l-10.3.33h-.43a3.56,3.56,0,0,0,1.68.48,11.48,11.48,0,0,1,2.49.22c.39.12.83.42.78.84s-.36.54-.59.78a2.25,2.25,0,0,0,0,2.66l-.35,4.11a9,9,0,0,0,2.17-.57,5.34,5.34,0,0,0,3-3A9,9,0,0,0,59.26,22a23.66,23.66,0,0,0,4.89-2.77A6,6,0,0,0,66,17.49a2,2,0,0,0-.07-2.38,2.89,2.89,0,0,0-2.41-.57,19.36,19.36,0,0,0,1.58-1.68,3,3,0,0,0,.83-1.48c.16-1.07-.78-2-1.73-2.48a2.54,2.54,0,0,0-2.57-.16,3,3,0,0,0-1,2c-.13.62-.26,1.24-.38,1.86,0-.25-.05-.5-.07-.74a15.69,15.69,0,0,1,1.28-7.24,6.49,6.49,0,0,1,1.06-1.91A4.67,4.67,0,0,1,66.2,1.22a7.53,7.53,0,0,1,2.36.39c2,.66,3.83,1.94,5.83,2.73s4.45,1,6.14-.3c-1.06,2.37-2.88,4.54-5.44,5a11.63,11.63,0,0,0,6.63,6.33,30,30,0,0,1-6.74,1,1.93,1.93,0,0,1-1.07-.18c1.68,2.09,2.3,5.2,3.6,7.54s3.19,4.61,5.81,5.18a10.6,10.6,0,0,1-10.45-2.24c.48,4.26,1,8.73,2.73,12.68A19.56,19.56,0,0,0,83.78,49Z"/></g></g></svg>