<svg xmlns="http://www.w3.org/2000/svg" viewBox="0 0 82.82 87.21"><g id="Layer_2" data-name="Layer 2"><g id="OBJECT"><path d="M64.94,31.07C64.79,36,65,41,66.63,45.66a21.63,21.63,0,0,0,8.76,11.57c-5.91.09-11.26-4.18-14.45-9.16S56.1,37.3,53.73,31.88A25.47,25.47,0,0,0,54.1,40,60.78,60.78,0,0,0,56,46.47a16,16,0,0,1-6.42-5.72,51.48,51.48,0,0,1-4.24-8c-.07,1.84-.37,3.83-.44,5.66a8.1,8.1,0,0,0,.5,3.92,6.66,6.66,0,0,0,2.41,2.45c1.68,1.13,3.54,2,5.23,3.1A9.74,9.74,0,0,1,57,52.35a7.21,7.21,0,0,0-2.76.45A40.64,40.64,0,0,0,63,64.4c.53-.67,1.32-1.35,1.86-2a2.81,2.81,0,0,1,.91-.84,2.28,2.28,0,0,1,1.32-.14,7.43,7.43,0,0,1,6.31,6.07,3,3,0,0,0-3.08-1.86A4.84,4.84,0,0,0,67,67.36,4.73,4.73,0,0,1,70,71.54a10.13,10.13,0,0,1-1.63,5.4c-.11-.89-.23-1.8-.34-2.68A2.12,2.12,0,0,0,67.58,73a2.51,2.51,0,0,0-.91-.49,5.1,5.1,0,0,1-1.91-1.37c-.81-.91-1.43-2.18-2.62-2.45a28,28,0,0,1-.56,5.78,2.15,2.15,0,0,1-.85,1.56c-1-1.41-2-2.94-2-4.66,0-1.28.56-2.55.31-3.8a1.57,1.57,0,0,0-1.62-1.24,5.12,5.12,0,0,0-1.9,1.06,2.36,2.36,0,0,1-2,.53c-.54-.19-.9-.69-1.38-1a2.09,2.09,0,0,0-2.3.16c.5-.68.14-2,.75-2.64a2.21,2.21,0,0,1,1.14-.57A41.73,41.73,0,0,1,56.22,63a20.49,20.49,0,0,0-6.09-7.2A12.38,12.38,0,0,1,49,57.87a74,74,0,0,0-4.06-6.43c0,.93,0,2,0,2.88a5.21,5.21,0,0,0,.38,2.07,5.32,5.32,0,0,0,2.82,2.21,13.8,13.8,0,0,1-3.35,2.11,2.78,2.78,0,0,0,3.67,1.57A5.43,5.43,0,0,1,45.24,66a10,10,0,0,0,9.14,4.12,9,9,0,0,1-7.62,1.64,6.3,6.3,0,0,0,4.93,4.14c1.19.13,2.4-.07,3.57.15,2.52.46,4.31,2.7,5.51,5-.74-1-2.55-1.14-3.82-1.2s-2.54.2-3.81.23a10.85,10.85,0,0,1-7.92-3.23,18,18,0,0,0,4.55,4.36c1.33.95,2.84,1.94,4.46,1.74a7.3,7.3,0,0,1-5.36.06c-2.12-.83-3.71-2.61-5.22-4.32a24.92,24.92,0,0,1-.7,4.54c-.38,1.49-.16,2.94-1.24,4a8.37,8.37,0,0,1-1.84-4,25.84,25.84,0,0,1-.71-4.54C37.66,80.34,36.07,82.12,34,83a7.3,7.3,0,0,1-5.36-.06c1.62.2,3.13-.79,4.46-1.74a18,18,0,0,0,4.55-4.36A10.85,10.85,0,0,1,29.68,80c-1.27,0-2.54-.28-3.81-.23S22.79,80,22.05,81c1.19-2.27,3-4.51,5.51-5,1.17-.22,2.38,0,3.57-.15a6.3,6.3,0,0,0,4.93-4.14,9,9,0,0,1-7.62-1.64A10.06,10.06,0,0,0,37.58,66a5.47,5.47,0,0,1-3.24-3.69A2.79,2.79,0,0,0,38,60.71a13.8,13.8,0,0,1-3.35-2.11,5.32,5.32,0,0,0,2.82-2.21,5.21,5.21,0,0,0,.38-2.07c.05-.93,0-2,0-2.88a74,74,0,0,0-4.06,6.43,12.38,12.38,0,0,1-1.15-2.08,20.52,20.52,0,0,0-6.1,7.2,40.78,40.78,0,0,1,4.55.94,2.2,2.2,0,0,1,1.15.57c.61.69.25,2,.75,2.64a2.09,2.09,0,0,0-2.3-.16c-.48.29-.84.79-1.38,1a2.36,2.36,0,0,1-2-.53,5.12,5.12,0,0,0-1.9-1.06,1.56,1.56,0,0,0-1.62,1.24c-.25,1.25.31,2.52.31,3.8,0,1.72-1.05,3.25-2,4.66a2.15,2.15,0,0,1-.85-1.56,28.76,28.76,0,0,1-.57-5.78c-1.18.27-1.8,1.54-2.61,2.45a5.1,5.1,0,0,1-1.91,1.37,2.51,2.51,0,0,0-.91.49,2.12,2.12,0,0,0-.43,1.22c-.11.88-.23,1.79-.35,2.68a10.21,10.21,0,0,1-1.62-5.4,4.72,4.72,0,0,1,2.94-4.18,4.84,4.84,0,0,0-3.24-1.76,3,3,0,0,0-3.08,1.86,7.43,7.43,0,0,1,6.31-6.07,2.28,2.28,0,0,1,1.32.14,2.81,2.81,0,0,1,.91.84c.54.68,1.32,1.36,1.86,2a40.64,40.64,0,0,0,8.71-11.6,7.21,7.21,0,0,0-2.76-.45,9.74,9.74,0,0,1,4-4.48c1.69-1.12,3.55-2,5.23-3.1a6.74,6.74,0,0,0,2.41-2.45,8.1,8.1,0,0,0,.5-3.92c-.07-1.83-.38-3.82-.45-5.66a51.43,51.43,0,0,1-4.23,8,16,16,0,0,1-6.42,5.72A60.78,60.78,0,0,0,28.72,40a25.17,25.17,0,0,0,.36-8.08c-2.36,5.42-4,11.21-7.2,16.19s-8.54,9.25-14.45,9.16a21.63,21.63,0,0,0,8.76-11.57C17.79,41,18,36,17.88,31.07c-1.54,4.23-3.47,8.42-6.55,11.71S4.49,48.08,0,47.73a19.65,19.65,0,0,0,8.18-9.65c1.68-3.95,2.25-8.42,2.72-12.69A10.56,10.56,0,0,1,.46,27.64C3.07,27.06,5,24.8,6.27,22.46S8.19,17,9.87,14.92a2,2,0,0,1-1.07.18,30,30,0,0,1-6.74-.95A11.68,11.68,0,0,0,8.69,7.81c-2.56-.45-4.38-2.62-5.44-5,1.69,1.33,4.15,1.1,6.14.3S13.17,1.05,15.22.38s4.57-.55,6,1.07a6.73,6.73,0,0,1,1.06,1.91,15.62,15.62,0,0,1,1.21,8c-.13-.62-.25-1.24-.38-1.86a3,3,0,0,0-1-2,2.54,2.54,0,0,0-2.56.15c-1,.51-1.89,1.42-1.74,2.49a3,3,0,0,0,.84,1.47,18.05,18.05,0,0,0,1.58,1.69,2.92,2.92,0,0,0-2.42.57,2,2,0,0,0-.06,2.37A6,6,0,0,0,19.63,18a23.86,23.86,0,0,0,4.89,2.77,9.07,9.07,0,0,0,5.82.19,5.3,5.3,0,0,0,3,2.94,8.83,8.83,0,0,0,2.43.6l0-.42a5.64,5.64,0,0,0,0-1.3c-.3-1.44-1.88-2.65-3.16-3.39a5.77,5.77,0,0,0,1.77-6.43,19.22,19.22,0,0,0-.94-1.87,11.92,11.92,0,0,1-1.12-6c.77.59,1.76,1.21,2.65.81a.62.62,0,0,0,.27-.21.89.89,0,0,0,.12-.4,4.7,4.7,0,0,0-.14-2.08,2,2,0,0,0-1.49-1.33,5.57,5.57,0,0,1,3.64-.76,11,11,0,0,1,2,.52c.9.29,1.57.53,2.47.83a2.15,2.15,0,0,0-1-2.46,9.3,9.3,0,0,1,3.88,1.58A9.2,9.2,0,0,1,46.56,4.1c.82,1.38,1.79,3,3.49,3.29A2,2,0,0,0,51.84,7c1.45,2-1.79,4.51-3.59,4.5a17.26,17.26,0,0,1-1.88-.24,4.1,4.1,0,0,0-3.11.72A2.55,2.55,0,0,0,42.51,13a28.47,28.47,0,0,0,9.43.39c1.28-.16,2.75-.58,3.2-1.79.23-.65.11-1.4.39-2,.15-.33.58-.63.85-.38a.64.64,0,0,1,.16.33,6.52,6.52,0,0,1-.21,4.07,2.18,2.18,0,0,1-.63,1A2.73,2.73,0,0,1,54,15l-10.3.33h-.43a3.76,3.76,0,0,0,1.68.48,10.89,10.89,0,0,1,2.49.22c.4.12.83.42.78.83s-.36.54-.59.78a2.25,2.25,0,0,0,0,2.67l-.36,4.11a8.92,8.92,0,0,0,2.17-.58,5.3,5.3,0,0,0,3-2.94,9.07,9.07,0,0,0,5.82-.19A23.86,23.86,0,0,0,63.19,18a6,6,0,0,0,1.86-1.71A2,2,0,0,0,65,13.89a2.92,2.92,0,0,0-2.42-.57,19.49,19.49,0,0,0,1.58-1.69A3,3,0,0,0,65,10.16c.15-1.07-.78-2-1.74-2.49a2.54,2.54,0,0,0-2.56-.15,3,3,0,0,0-1,2c-.13.62-.25,1.24-.38,1.86a15.62,15.62,0,0,1,1.21-8,6.73,6.73,0,0,1,1.06-1.91C63-.17,65.56-.28,67.6.38s3.83,1.94,5.83,2.73,4.45,1,6.14-.3c-1.06,2.38-2.88,4.55-5.44,5a11.68,11.68,0,0,0,6.63,6.34A30,30,0,0,1,74,15.1,2,2,0,0,1,73,14.92c1.68,2.09,2.3,5.2,3.6,7.54s3.2,4.6,5.81,5.18a10.56,10.56,0,0,1-10.44-2.25c.47,4.27,1,8.74,2.72,12.69a19.6,19.6,0,0,0,8.18,9.65c-4.49.35-8.25-1.67-11.33-4.95S66.48,35.3,64.94,31.07ZM82.82,0H0V87.21H82.82Z"/></g></g></svg>