<svg xmlns="http://www.w3.org/2000/svg" viewBox="0 0 122.32 158.21"><defs><style>.cls-1{isolation:isolate;}.cls-2{fill:#ea580c;}.cls-3{fill:#161b21;}.cls-4{fill:#e8dbc4;mix-blend-mode:multiply;}</style></defs><g class="cls-1"><g id="Layer_2" data-name="Layer 2"><g id="OBJECT"><path class="cls-2" d="M122.32,6.19A305.36,305.36,0,0,0,0,6.19V60.52a108.6,108.6,0,0,0,61.16,97.69h0a108.6,108.6,0,0,0,61.16-97.69V6.19Z"/><path class="cls-3" d="M61.16,151.57a102.68,102.68,0,0,1-55.23-91V11.07a299.82,299.82,0,0,1,110.45,0V60.52a102.64,102.64,0,0,1-55.22,91Z"/><path class="cls-2" d="M91.24,60.48c3.08,3.28,6.84,5.3,11.33,5a19.6,19.6,0,0,1-8.18-9.65c-1.68-4-2.25-8.42-2.72-12.69a10.56,10.56,0,0,0,10.44,2.25c-2.62-.58-4.52-2.84-5.81-5.18s-1.92-5.45-3.6-7.54a2,2,0,0,0,1.07.18,30,30,0,0,0,6.74-.95,11.68,11.68,0,0,1-6.63-6.34c2.56-.45,4.38-2.62,5.44-5-1.69,1.33-4.15,1.1-6.14.3s-3.79-2.06-5.83-2.73-4.57-.55-6,1.07a6.73,6.73,0,0,0-1.06,1.91,15.62,15.62,0,0,0-1.21,8c.12-.62.25-1.24.38-1.86a3.05,3.05,0,0,1,1-2,2.54,2.54,0,0,1,2.57.16c1,.5,1.89,1.41,1.74,2.48a3,3,0,0,1-.84,1.47A19.49,19.49,0,0,1,82.32,31a2.89,2.89,0,0,1,2.41.57A2,2,0,0,1,84.8,34a6,6,0,0,1-1.86,1.71,23.86,23.86,0,0,1-4.89,2.77,9.07,9.07,0,0,1-5.82.19,5.3,5.3,0,0,1-3,2.94,8.92,8.92,0,0,1-2.17.58L67.4,38a2.25,2.25,0,0,1,0-2.67c.23-.24.56-.44.59-.78s-.38-.71-.78-.83a10.89,10.89,0,0,0-2.49-.22A3.76,3.76,0,0,1,63,33.06h.43l10.3-.33a2.75,2.75,0,0,0,1.72-.44,2.18,2.18,0,0,0,.63-1,6.52,6.52,0,0,0,.21-4.07.64.64,0,0,0-.16-.33c-.27-.25-.7.05-.85.38-.28.63-.16,1.38-.4,2C74.44,30.53,73,31,71.69,31.11a28.18,28.18,0,0,1-9.43-.39A2.62,2.62,0,0,1,63,29.64a4.12,4.12,0,0,1,3.12-.72,17.26,17.26,0,0,0,1.88.24c1.8,0,5-2.47,3.59-4.5a2,2,0,0,1-1.79.43c-1.7-.34-2.67-1.91-3.49-3.29a9.2,9.2,0,0,0-1.89-2.52,9.3,9.3,0,0,0-3.88-1.58,2.15,2.15,0,0,1,1,2.46c-.9-.3-1.57-.54-2.47-.83a11,11,0,0,0-2-.52,5.61,5.61,0,0,0-3.65.76A2,2,0,0,1,55,20.9,4.7,4.7,0,0,1,55.11,23a.89.89,0,0,1-.12.4.62.62,0,0,1-.27.21c-.89.4-1.88-.22-2.65-.81a11.92,11.92,0,0,0,1.12,6,19.22,19.22,0,0,1,.94,1.87,5.77,5.77,0,0,1-1.77,6.43c1.27.74,2.86,1.95,3.16,3.39a5.64,5.64,0,0,1,0,1.3l0,.42a8.83,8.83,0,0,1-2.43-.6,5.3,5.3,0,0,1-3-2.94,9.1,9.1,0,0,1-5.83-.19,24.05,24.05,0,0,1-4.88-2.77A6,6,0,0,1,37.52,34a2,2,0,0,1,.06-2.37A2.91,2.91,0,0,1,40,31a18.05,18.05,0,0,1-1.58-1.69,3,3,0,0,1-.84-1.47c-.15-1.07.78-2,1.74-2.48a2.52,2.52,0,0,1,2.56-.16,3,3,0,0,1,1,2c.13.62.25,1.24.38,1.86a15.62,15.62,0,0,0-1.21-8A6.73,6.73,0,0,0,41,19.15c-1.41-1.62-3.94-1.73-6-1.07S31.14,20,29.14,20.81s-4.45,1-6.14-.3c1.06,2.38,2.88,4.55,5.44,5a11.68,11.68,0,0,1-6.63,6.34,29.94,29.94,0,0,0,6.74.95,1.91,1.91,0,0,0,1.06-.18c-1.67,2.09-2.3,5.2-3.59,7.54s-3.2,4.6-5.81,5.18a10.56,10.56,0,0,0,10.44-2.25c-.47,4.27-1,8.74-2.72,12.69a19.65,19.65,0,0,1-8.18,9.65c4.49.35,8.25-1.67,11.33-5s5-7.48,6.55-11.71c.15,4.93-.09,9.93-1.69,14.59a21.63,21.63,0,0,1-8.76,11.57c5.91.09,11.26-4.18,14.45-9.16S46.47,55,48.83,49.58a25.17,25.17,0,0,1-.36,8.08,60.78,60.78,0,0,1-1.92,6.51A16,16,0,0,0,53,58.45a51.43,51.43,0,0,0,4.23-8c.07,1.84.37,3.83.45,5.66a8.1,8.1,0,0,1-.5,3.92,6.74,6.74,0,0,1-2.41,2.45c-1.68,1.13-3.54,2-5.23,3.1a9.76,9.76,0,0,0-4,4.48,7.23,7.23,0,0,1,2.77.45,40.64,40.64,0,0,1-8.71,11.6c-.54-.67-1.32-1.35-1.86-2a2.91,2.91,0,0,0-.91-.84,2.28,2.28,0,0,0-1.32-.14,7.43,7.43,0,0,0-6.31,6.07,3,3,0,0,1,3.08-1.86,4.84,4.84,0,0,1,3.24,1.76,4.72,4.72,0,0,0-2.94,4.18,10.21,10.21,0,0,0,1.62,5.4c.12-.89.24-1.8.35-2.68A2.12,2.12,0,0,1,35,90.74a2.51,2.51,0,0,1,.91-.49,5.19,5.19,0,0,0,1.91-1.36c.81-.92,1.42-2.19,2.61-2.46A29.49,29.49,0,0,0,41,92.21a2.19,2.19,0,0,0,.86,1.56c1-1.41,2-2.94,2-4.66,0-1.28-.56-2.55-.31-3.8a1.56,1.56,0,0,1,1.62-1.24,5,5,0,0,1,1.89,1.06,2.39,2.39,0,0,0,2,.53c.54-.19.9-.69,1.38-1a2.09,2.09,0,0,1,2.3.16c-.5-.68-.15-2-.75-2.64a2.2,2.2,0,0,0-1.15-.57,40.78,40.78,0,0,0-4.55-.94,20.6,20.6,0,0,1,6.09-7.2,13.18,13.18,0,0,0,1.16,2.08,74,74,0,0,1,4.06-6.43c0,.93,0,2,0,2.88a5.21,5.21,0,0,1-.38,2.07,5.32,5.32,0,0,1-2.82,2.21,13.8,13.8,0,0,0,3.35,2.11A2.79,2.79,0,0,1,54.09,80a5.47,5.47,0,0,0,3.24,3.69,10.06,10.06,0,0,1-9.14,4.12,9,9,0,0,0,7.62,1.64,6.3,6.3,0,0,1-4.93,4.14c-1.19.13-2.4-.07-3.57.15-2.52.46-4.32,2.7-5.51,5,.74-1,2.55-1.14,3.82-1.2s2.54.2,3.81.23a10.85,10.85,0,0,0,7.92-3.23,18,18,0,0,1-4.55,4.36c-1.33,1-2.84,1.94-4.46,1.74a7.3,7.3,0,0,0,5.36.06c2.12-.83,3.71-2.61,5.21-4.32a25.84,25.84,0,0,0,.71,4.54,8.37,8.37,0,0,0,1.84,4c1.08-1.1.86-2.55,1.24-4a24.92,24.92,0,0,0,.7-4.54c1.51,1.71,3.1,3.49,5.22,4.32a7.3,7.3,0,0,0,5.36-.06c-1.62.2-3.13-.79-4.46-1.74A18,18,0,0,1,65,94.49a10.85,10.85,0,0,0,7.92,3.23c1.27,0,2.54-.28,3.81-.23s3.08.16,3.82,1.2c-1.2-2.27-3-4.51-5.51-5-1.17-.22-2.39,0-3.57-.15a6.29,6.29,0,0,1-4.93-4.14,9,9,0,0,0,7.62-1.64A10,10,0,0,1,65,83.67,5.43,5.43,0,0,0,68.22,80a2.78,2.78,0,0,1-3.67-1.57A13.8,13.8,0,0,0,67.9,76.3a5.38,5.38,0,0,1-2.83-2.21A5.59,5.59,0,0,1,64.69,72c0-.93,0-2,0-2.88a74,74,0,0,1,4.06,6.43,12.38,12.38,0,0,0,1.15-2.08A20.49,20.49,0,0,1,76,80.69a41.73,41.73,0,0,0-4.55.94,2.21,2.21,0,0,0-1.14.57c-.61.69-.25,2-.75,2.64a2.09,2.09,0,0,1,2.3-.16c.48.29.84.79,1.38,1a2.36,2.36,0,0,0,2-.53,5.12,5.12,0,0,1,1.9-1.06,1.57,1.57,0,0,1,1.62,1.24c.25,1.25-.31,2.52-.31,3.8,0,1.72,1,3.25,2,4.66a2.15,2.15,0,0,0,.85-1.56,28,28,0,0,0,.56-5.78c1.19.27,1.81,1.54,2.62,2.46a5.19,5.19,0,0,0,1.91,1.36,2.46,2.46,0,0,1,.9.49A2.06,2.06,0,0,1,87.76,92c.11.88.23,1.79.34,2.68a10.13,10.13,0,0,0,1.63-5.4,4.75,4.75,0,0,0-2.94-4.18A4.84,4.84,0,0,1,90,83.3a3,3,0,0,1,3.08,1.86,7.44,7.44,0,0,0-6.31-6.07,2.28,2.28,0,0,0-1.32.14,2.81,2.81,0,0,0-.91.84c-.54.68-1.33,1.36-1.86,2A40.85,40.85,0,0,1,74,70.5a7.29,7.29,0,0,1,2.77-.45,9.71,9.71,0,0,0-4-4.48c-1.68-1.12-3.54-2-5.22-3.1A6.66,6.66,0,0,1,65.17,60a8.1,8.1,0,0,1-.5-3.92c.07-1.83.37-3.82.44-5.66a51.48,51.48,0,0,0,4.24,8,16,16,0,0,0,6.42,5.72,58.56,58.56,0,0,1-1.92-6.51,25.47,25.47,0,0,1-.37-8.08c2.37,5.42,4,11.21,7.21,16.19S89.23,75,95.14,74.93a21.63,21.63,0,0,1-8.76-11.57c-1.6-4.66-1.84-9.66-1.69-14.59C86.22,53,88.15,57.19,91.24,60.48Z"/><path class="cls-2" d="M81,108.42a1.48,1.48,0,0,0-1.66-.3l-2.53-2.53a1.48,1.48,0,1,0-2.4.44l.83.82-5.82,5.81.52.53h0l-2.84-2.84a1.48,1.48,0,1,0-.17,2.23l.59.6L48.7,130.82l-2,7.49,7.49-2,17.64-18.83.56.56a1.49,1.49,0,0,0,.15,1.92,1.48,1.48,0,0,0,2.09-2.09L70,113.19h0l2.32,2.32,5.82-5.82.82.82a1.48,1.48,0,1,0,2.1-2.09Z"/><path class="cls-2" d="M52.36,113.19h0l-4.63,4.64A1.48,1.48,0,1,0,50,118l.57-.56L55.77,123l4.77-4.47-5.75-5.38.59-.6a1.48,1.48,0,1,0-.17-2.23l-2.85,2.84h0l.53-.53-5.82-5.81.82-.82a1.48,1.48,0,1,0-2.39-.44L43,108.12a1.48,1.48,0,1,0,.44,2.39l.82-.82L50,115.51Z"/><polygon class="cls-2" points="66.59 124.23 61.74 129.41 68.17 136.27 75.66 138.31 73.62 130.82 66.59 124.23"/><path class="cls-4" d="M122.32,6.19A305,305,0,0,0,61.16,0V158.21h0a108.6,108.6,0,0,0,61.16-97.69V6.19Z"/></g></g></g></svg>